<svg width="136" height="100%" viewBox="0 0 136 53" fill="none" xmlns="http://www.w3.org/2000/svg">
<path d="M51.6148 44.2109C51.5202 44.2089 51.5265 44.276 51.4399 44.2742C47.7802 45.0539 30.3636 51.3791 26.7815 52.2154C26.0117 52.3757 25.2031 52.3984 24.4166 52.2817C23.6302 52.1651 22.8864 51.9121 22.2415 51.5418C21.5966 51.1716 21.0673 50.6938 20.6936 50.1445C20.3199 49.5952 20.1115 48.9886 20.0841 48.3707L19.9861 44.1026L19.7504 33.8776L19.4667 21.6405L19.2325 11.3485L19.1345 7.08046C19.11 6.01642 19.6331 4.99275 20.5886 4.23464C21.5441 3.47654 22.8538 3.04609 24.2295 3.038C25.6052 3.02991 26.9343 3.44484 27.9244 4.1915C28.9145 4.93817 29.4844 5.95541 29.5089 7.01945L29.6069 11.2875L29.8428 21.5064L30.15 33.744L30.3624 42.9386L48.6654 36.456C49.9918 36.185 51.4079 36.328 52.61 36.8543C53.8121 37.3806 54.7042 38.2483 55.095 39.2711C55.2889 39.7754 55.3527 40.3034 55.2827 40.8248C55.2127 41.3462 55.0102 41.8508 54.687 42.3096C54.3637 42.7684 53.926 43.1725 53.3988 43.4988C52.8716 43.825 52.2654 44.067 51.6148 44.2109ZM26.7296 6.20339L28.0174 40.0539L27.7313 6.1764C27.7188 6.07733 27.6614 5.98452 27.5692 5.91445C27.4771 5.84439 27.3561 5.80161 27.2278 5.79372C27.1588 5.79187 27.0901 5.80137 27.0265 5.82159C26.9628 5.8418 26.9055 5.87227 26.8585 5.91098C26.8114 5.9497 26.7755 5.99578 26.7533 6.04618C26.7311 6.09658 26.723 6.15016 26.7296 6.20339Z" fill="#1A2526"/>
<path d="M8.23705 5.10753C8.67976 5.27139 9.06995 5.52361 9.37473 5.84292C9.6795 6.16223 9.88992 6.53927 9.98826 6.94226L13.9863 35.8938C14.165 37.916 12.7028 39.5998 10.125 40.2134C8.7475 40.54 7.27701 40.4272 5.98858 39.8961C5.52182 39.7659 5.10823 39.5247 4.79655 39.2008C4.48488 38.8769 4.28811 38.4839 4.22944 38.068L0.199689 9.12979C-0.057929 7.10721 1.40412 5.44365 3.98982 4.83008C5.39802 4.48457 6.90559 4.58305 8.23705 5.10753ZM5.89538 7.33262L10.069 28.6109L7.60303 6.99087L6.59467 6.52763C6.14396 6.63316 5.77881 6.98167 5.89538 7.33262Z" fill="#1A2526"/>
<path fill-rule="evenodd" clip-rule="evenodd" d="M14.7948 45.9887C15.4596 48.088 13.8128 50.1372 11.0247 50.8218C8.23666 51.5063 5.77777 50.462 5.11297 48.3627C4.44816 46.2634 5.92053 44.2005 8.7086 43.5159C11.4967 42.8313 14.1156 43.8573 14.7948 45.9887ZM13.174 45.9229C13.055 45.7621 12.9196 45.6112 12.7693 45.4722C12.6722 45.3821 12.5598 45.3058 12.4361 45.2461L12.1171 45.0843C11.8939 44.9885 11.6804 44.8759 11.4792 44.7478C11.2326 44.7335 10.9888 44.6936 10.7528 44.6287C10.6218 44.6281 10.5065 44.6108 10.3932 44.5938C10.2738 44.5759 10.1567 44.5584 10.0262 44.561L9.75719 44.5596C9.67181 44.5375 9.5811 44.537 9.49548 44.5583L8.92041 44.6964L8.59283 44.7781L8.42562 44.7773C8.13376 44.9745 8.12518 45.218 8.25524 45.3661C8.35308 45.4431 8.47588 45.4911 8.60628 45.5033C8.73667 45.5154 8.86807 45.4911 8.98187 45.4338L9.06911 45.4343C9.06911 45.4343 9.06942 45.3766 9.21502 45.3389C9.21533 45.2812 9.2809 45.2559 9.2809 45.2559L9.52111 45.1994L9.68852 45.1618C9.77564 45.1881 9.87011 45.1886 9.9575 45.1631L10.5827 45.1663C10.7926 45.1908 11.0051 45.1919 11.2152 45.1695C11.2731 45.2146 11.3728 45.252 11.4726 45.2894C11.5724 45.3267 11.6721 45.3641 11.73 45.4092L12.0275 45.5197C12.155 45.5203 12.2029 45.5527 12.2518 45.5856C12.2754 45.6015 12.2992 45.6175 12.3323 45.6302C12.4615 45.7778 12.6212 45.9025 12.8028 45.9979L12.8068 46.0109C12.8398 46.1179 12.8567 46.1727 12.9544 46.2102L13.0258 46.4349C13.0929 46.6036 13.1191 46.7828 13.103 46.9609C13.0804 47.1074 13.0675 47.2551 13.0643 47.403C12.9753 47.4611 12.9619 47.5458 12.95 47.6205C12.9424 47.6683 12.9355 47.712 12.9098 47.7419C12.871 47.8462 12.8114 47.9436 12.7337 48.0294L12.6235 48.2404C12.6235 48.2404 12.7035 48.2408 12.8353 48.0684C12.8711 47.963 12.931 47.8651 13.0113 47.7808C13.041 47.6397 13.1236 47.5114 13.2459 47.4167C13.2899 47.2546 13.2908 47.0857 13.2486 46.9232C13.3283 46.7419 13.3568 46.5463 13.3316 46.3531L13.2601 46.1284L13.174 45.9229Z" fill="#5EBAAF"/>
<path d="M63.0376 16.9698C62.0512 11.0977 57.7519 4.59342 48.6492 3.96548C48.2914 3.96368 47.9415 3.96192 47.5915 3.96015C39.4798 3.91925 34.0403 9.77904 33.0482 15.3201C31.9744 21.2621 34.4056 29.0816 42.1988 32.1648C44.1182 32.943 46.2184 33.3534 48.3478 33.3666C51.0874 33.3886 53.7765 32.7524 56.099 31.5329C58.4216 30.3133 60.2812 28.561 61.4594 26.4818C63.0985 23.5151 63.6479 20.2034 63.0376 16.9698V16.9698ZM60.3434 24.0142C60.2068 24.2611 60.134 24.5016 59.9975 24.7484C59.7569 25.2599 59.4697 25.755 59.1385 26.2292C58.8169 26.6995 58.4473 27.1454 58.0338 27.5617C57.2446 28.3282 56.37 29.0294 55.422 29.6559C54.7128 30.135 53.9424 30.5462 53.125 30.8819C52.7983 31.0007 52.5193 31.1063 52.3281 31.1723L52.1051 31.2381C51.9717 31.2659 51.831 31.2541 51.7066 31.2047C51.5823 31.1554 51.4819 31.0714 51.4226 30.967C51.4163 30.8595 51.4592 30.754 51.5424 30.6723C51.6257 30.5906 51.743 30.5389 51.8703 30.5277C51.9496 30.5201 52.0258 30.4977 52.0933 30.462C52.2815 30.4174 52.4632 30.3554 52.6351 30.2774C53.4131 29.9842 54.1531 29.6248 54.8439 29.2047C55.7971 28.6646 56.6662 28.0262 57.4308 27.3044C57.8675 26.9118 58.2635 26.4886 58.6147 26.0393C58.9545 25.5905 59.2624 25.1252 59.5367 24.6457C59.6733 24.3989 59.7462 24.1517 59.8827 23.9049C60.0192 23.658 60.0921 23.4176 60.2284 23.2042L60.455 22.4761C60.5387 22.2406 60.5959 21.999 60.6259 21.7544C60.6988 21.514 60.7237 21.3201 60.7965 21.0863L60.8636 20.4578C60.9172 20.2379 60.9398 20.0135 60.9308 19.7891C60.964 19.5828 60.9651 19.3736 60.9341 19.167C60.9371 18.8184 60.9178 18.4699 60.8761 18.123C60.8793 17.8653 60.8567 17.6079 60.8087 17.3533L60.7163 16.7909C60.7157 16.9046 60.7862 17.099 60.8644 17.3402L60.9876 18.1035C61.0416 18.4115 61.0396 18.7728 61.1092 19.1411C61.1478 19.3687 61.1067 19.6027 61.1533 19.8103C61.1999 20.0179 61.1511 20.2318 61.15 20.4325L61.0828 21.1011C61.0736 21.3419 61.0377 21.5813 60.9755 21.8164C60.9743 22.0506 60.8775 22.2909 60.8604 22.525C60.8432 22.759 60.7144 23.0461 60.6338 23.253C60.5563 23.5117 60.4593 23.766 60.3434 24.0142V24.0142ZM46.4993 26.6204L46.2217 26.4719C45.8798 26.2789 45.5661 26.0528 45.2869 25.7981L45.0177 25.576C43.2997 24.1424 42.2846 22.1302 41.8065 19.3515C41.3541 17.07 41.782 14.7276 43.0274 12.6676C43.3793 12.0392 43.9048 11.4908 44.56 11.0682C45.2152 10.6456 45.9813 10.361 46.7943 10.2381L47.1046 10.1995C47.2925 10.2134 47.4813 10.2143 47.6693 10.2023L47.9317 10.2037L48.3129 10.3126L48.8688 10.4559L49.0274 10.537L49.099 10.5374C49.2797 10.6097 49.4523 10.6956 49.6145 10.7942C49.6882 10.8366 49.765 10.875 49.8446 10.9091C50.2793 11.1541 50.6805 11.4388 51.0409 11.758C52.7272 13.1714 53.782 15.2038 54.2443 17.9625C54.6911 20.2645 54.2695 22.6253 53.0389 24.7133C52.6824 25.3301 52.1614 25.869 51.5163 26.2882C50.8712 26.7073 50.1195 26.9953 49.3198 27.1297C49.2536 27.1335 49.1872 27.1331 49.121 27.1287C49.0418 27.1211 48.9618 27.1207 48.8824 27.1275L48.2621 27.1244L48.1031 27.1236L48.0394 27.1233L47.7377 27.0348C47.5472 26.9736 47.3487 26.9124 47.1263 26.8577L47.023 26.8372L46.9196 26.8366C46.7678 26.7739 46.6264 26.6944 46.4994 26.6004L46.4993 26.6204Z" fill="#1A2526"/>
<path d="M51.5516 2.62886C50.0899 2.11687 48.4892 1.95371 46.9256 2.1573C46.8343 2.12702 46.7514 2.08131 46.682 2.023C46.6126 1.96468 46.5581 1.89501 46.522 1.81831C46.4859 1.7416 46.4689 1.65949 46.472 1.57707C46.4752 1.49465 46.4984 1.41368 46.5403 1.33918C46.6337 1.23159 46.757 1.14493 46.8995 1.08677C47.072 1.03214 47.258 1.01468 47.4406 1.03597C47.4403 1.09618 50.1701 0.728617 52.1296 1.62827C52.2883 1.70285 52.4069 1.82586 52.4609 1.97183C52.5149 2.1178 52.5001 2.27556 52.4196 2.41247C52.3826 2.47703 52.33 2.53437 52.2651 2.5808C52.2002 2.62723 52.1245 2.66174 52.0428 2.68211C51.961 2.70248 51.8751 2.70826 51.7906 2.69909C51.706 2.68992 51.6246 2.666 51.5516 2.62886V2.62886Z" fill="#5EBAAF" stroke="#5EBAAF" stroke-miterlimit="10"/>
<path d="M55.7843 3.71372C55.6377 3.62078 55.5397 3.48367 55.5109 3.33128C55.482 3.17888 55.5246 3.0231 55.6296 2.89676C55.7323 2.79077 55.8674 2.71047 56.0206 2.66458C56.2028 2.6074 56.4036 2.60841 56.5852 2.66743C59.9017 4.48979 62.4834 7.11574 63.9886 10.1976C64.0316 10.2654 64.057 10.3402 64.0631 10.4169C64.0691 10.4936 64.0557 10.5705 64.0238 10.6425C63.9918 10.7145 63.942 10.7799 63.8776 10.8344C63.8132 10.8889 63.7358 10.9312 63.6504 10.9585C63.4853 11.0196 63.2982 11.0239 63.1291 10.9706C62.96 10.9172 62.8223 10.8105 62.7454 10.673C61.3349 7.80474 58.903 5.37343 55.7843 3.71372Z" fill="#5EBAAF" stroke="#5EBAAF" stroke-miterlimit="10"/>
<path d="M65.7339 23.2237C64.2641 29.5492 65.7236 37.543 74.4389 41.0132C74.7858 41.1425 75.1251 41.2639 75.4741 41.3714C83.4524 43.9284 91.2985 39.6116 94.5975 34.24C98.1801 28.4588 99.107 19.6985 92.6943 14.1236C89.8832 11.6352 86.0594 10.2224 82.0617 10.1954C78.064 10.1684 74.219 11.5292 71.3702 13.9794C68.4784 16.4992 66.5155 19.7186 65.7339 23.2237V23.2237ZM71.3933 16.8423C71.6318 16.6339 71.8052 16.4059 72.0436 16.1975C72.4946 15.7522 72.9837 15.3376 73.5066 14.9571C74.0269 14.5604 74.5861 14.2046 75.1779 13.8938C76.2866 13.3532 77.4521 12.9069 78.6585 12.5609C79.5573 12.299 80.4868 12.1256 81.4298 12.0438C81.8086 12.0219 82.1285 12.0028 82.3632 11.999L82.6123 12.0183C82.7556 12.0319 82.8894 12.0879 82.9916 12.177C83.0937 12.266 83.1581 12.3829 83.1741 12.5082C83.1328 12.6202 83.0445 12.7144 82.927 12.7718C82.8095 12.8292 82.6715 12.8456 82.5406 12.8177C82.4629 12.7959 82.3807 12.7896 82.2998 12.799C82.0955 12.7835 81.8897 12.7897 81.6871 12.8174C80.795 12.8755 79.912 13.0131 79.052 13.228C77.8844 13.4873 76.7581 13.8719 75.6989 14.3732C75.1024 14.6391 74.5337 14.95 73.9993 15.3026C73.4715 15.6557 72.9694 16.0372 72.4959 16.4448C72.2574 16.6531 72.0833 16.8884 71.8419 17.1258C71.6006 17.3633 71.4301 17.5623 71.2036 17.735L70.6742 18.4257C70.4935 18.6457 70.3332 18.878 70.1947 19.1203C70.0212 19.3483 69.9186 19.5379 69.7451 19.766L69.4065 20.391C69.2414 20.5825 69.1027 20.7904 68.993 21.0102C68.8699 21.211 68.778 21.4254 68.72 21.6476C68.5651 22.0032 68.4364 22.3672 68.3348 22.7373C68.2222 22.9995 68.1337 23.2692 68.0701 23.5437L67.935 24.1406C67.9474 24.0171 67.9684 23.8066 67.9961 23.5307L68.2034 22.7125C68.2784 22.3817 68.4256 21.998 68.5146 21.6098C68.5393 21.3629 68.7045 21.1342 68.7534 20.8965C68.8023 20.6588 68.9222 20.4632 69.0181 20.2585L69.3687 19.5978C69.4777 19.3535 69.6133 19.119 69.7735 18.8974C69.8971 18.6655 70.0706 18.4375 70.1949 18.1983C70.355 17.9588 70.5318 17.7281 70.7243 17.5076C70.9227 17.2735 71.1378 17.0507 71.3684 16.8404L71.3933 16.8423ZM86.1404 18.4894L86.3511 18.7252C86.6101 19.0257 86.8274 19.3521 86.9985 19.6973L87.168 20.0105C88.2564 22.0119 88.4081 24.3433 87.7119 27.3699C87.2056 29.8508 85.8052 32.1243 83.7154 33.8582C83.1022 34.3925 82.3521 34.7911 81.5272 35.0212C80.7024 35.2513 79.8265 35.3061 78.9722 35.1812L78.6484 35.1561C78.4709 35.0776 78.2876 35.0096 78.0997 34.9526L77.8322 34.866L77.5038 34.6357L77.0166 34.3199L76.8838 34.1413L76.8174 34.1362C76.6572 34.0084 76.5115 33.8672 76.3826 33.7147C76.3144 33.6436 76.2469 33.5651 76.2008 33.525C75.8729 33.1403 75.5972 32.7236 75.3794 32.2833C74.313 30.3128 74.1438 27.9069 74.8439 24.9245C75.3647 22.4302 76.7641 20.1414 78.8462 18.3781C79.4593 17.8572 80.2016 17.4672 81.0155 17.2384C81.8294 17.0095 82.6929 16.948 83.5388 17.0586C83.6085 17.058 83.678 17.0634 83.7464 17.0746C83.8179 17.1113 83.8934 17.1416 83.9717 17.1653L84.5897 17.3448L84.7431 17.4006L84.7976 17.4414L85.0556 17.6224C85.2191 17.7448 85.3909 17.8679 85.5875 17.9929L85.6944 18.0963L85.7889 18.1548C85.9114 18.2549 86.0209 18.3664 86.1155 18.4874L86.1404 18.4894Z" fill="#1A2526"/>
<path d="M63.9394 38.0807C63.7974 38.148 63.6322 38.1678 63.4746 38.1364C63.317 38.105 63.1778 38.0245 63.083 37.9101C61.951 36.4921 62.1089 34.4358 62.0458 34.4209C62.0021 34.2868 62.0025 34.1447 62.0468 34.0108C62.0974 33.899 62.1789 33.7998 62.284 33.7223C62.3612 33.6861 62.4459 33.6636 62.5331 33.6561C62.6203 33.6487 62.7084 33.6563 62.7923 33.6787C62.8761 33.7011 62.9541 33.7377 63.0218 33.7865C63.0894 33.8353 63.1454 33.8953 63.1865 33.963C63.1105 35.1635 63.4259 36.3585 64.096 37.409C64.1411 37.4607 64.173 37.5202 64.1896 37.5835C64.2062 37.6469 64.2072 37.7125 64.1923 37.7762C64.1775 37.8398 64.1472 37.8999 64.1036 37.9525C64.06 38.005 64.004 38.0487 63.9394 38.0807V38.0807Z" fill="#5EBAAF" stroke="#5EBAAF" stroke-miterlimit="10"/>
<path d="M74.4366 45.5546C74.5743 45.606 74.6844 45.7013 74.7447 45.8211C74.8049 45.9409 74.8109 46.0763 74.7612 46.1997C74.7327 46.2652 74.6886 46.3246 74.6318 46.3741C74.575 46.4235 74.5069 46.4619 74.4319 46.4865C74.3568 46.5112 74.2767 46.5216 74.1967 46.5172C74.1166 46.5127 74.0386 46.4934 73.9677 46.4606C70.6591 45.3709 67.7908 43.4517 65.7223 40.9437C65.6467 40.8115 65.63 40.6596 65.6754 40.5174C65.7262 40.4057 65.8077 40.3066 65.9126 40.2288C66.0486 40.1489 66.2137 40.1157 66.3762 40.1356C66.5386 40.1556 66.687 40.2273 66.7928 40.337C68.6834 42.7085 71.3474 44.5268 74.4366 45.5546Z" fill="#5EBAAF" stroke="#5EBAAF" stroke-miterlimit="10"/>
<path d="M131.977 36.0459C123.637 36.0789 115.488 34.083 108.674 30.3387C108.92 33.3495 109.17 36.4176 109.489 39.4307C109.835 43.678 101.443 44.0748 101.023 39.8311C100.054 28.7467 99.0881 17.7138 98.0455 6.6443C97.7036 2.44855 106.088 2.05207 106.504 6.24433C106.877 10.8236 107.324 15.3994 107.697 19.9786C113.563 16.0237 118.635 10.7618 120.319 4.90152C121.505 0.736969 129.764 2.07599 128.045 5.77736C126.579 13.4086 120.698 19.9155 113.454 24.8549C114.034 25.1551 114.54 25.3782 114.999 25.6495C120 28.0563 125.554 29.6324 131.467 29.5137C136.927 29.3819 137.461 35.9417 131.977 36.0459ZM113.803 21.9654L114.666 21.3844C114.926 21.2112 115.189 20.9805 115.586 20.7663L116.76 19.8259C116.961 19.6498 117.221 19.4823 117.458 19.3045C117.629 19.0913 117.823 18.8899 118.038 18.7024C118.286 18.5243 118.518 18.3328 118.732 18.1295C118.924 17.8915 119.138 17.6644 119.372 17.4499L120.053 16.7167C120.242 16.4894 120.423 16.2682 120.689 15.9855C120.955 15.7029 121.136 15.476 121.313 15.1975C121.491 14.9191 121.694 14.6911 121.945 14.4092C122.332 13.9035 122.685 13.3824 123.002 12.848C123.379 12.29 123.652 11.737 124.055 11.2295C124.458 10.722 124.672 10.1718 124.906 9.67803C125.146 9.22705 125.356 8.76639 125.533 8.298C125.95 7.41065 126.239 6.69592 126.468 6.14495L126.702 5.5593C126.688 5.3933 126.758 5.33829 126.758 5.33829L126.749 5.22381C126.765 5.1013 126.718 4.97871 126.619 4.8824C126.519 4.78609 126.376 4.72374 126.218 4.70876C126.054 4.69259 125.888 4.72663 125.757 4.80367C125.625 4.88072 125.537 4.9947 125.511 5.12142C125.507 5.17878 125.486 5.23463 125.451 5.28518C125.37 5.47415 125.317 5.66934 125.291 5.86736C125.124 6.36367 124.901 7.07526 124.558 7.95339C124.379 8.39281 124.212 8.88912 123.979 9.38857L123.169 10.9036C122.933 11.4549 122.638 12.009 122.397 12.5031L121.349 14.1788C121.16 14.4004 120.975 14.6792 120.783 14.9583C120.591 15.2374 120.41 15.4644 120.225 15.7432C119.993 15.9761 119.781 16.2203 119.589 16.4743C119.418 16.7383 119.204 16.984 118.953 17.2054C118.781 17.4564 118.591 17.6995 118.383 17.9334L117.736 18.5386C117.543 18.7086 117.428 18.9324 117.227 19.1028L116.578 19.6736C116.183 20.014 115.893 20.3553 115.534 20.5906C115.268 20.8445 114.975 21.0812 114.659 21.2985C114.167 21.7011 113.838 21.935 113.838 21.935L113.803 21.9654Z" fill="#1A2526"/>
<path d="M123.673 21.4466C123.802 21.5307 123.887 21.6524 123.911 21.7865C123.935 21.9206 123.895 22.057 123.8 22.1677C122.598 23.5162 121.646 24.3513 121.65 24.4107C121.509 24.4849 121.348 24.5298 121.181 24.5416C121.038 24.5387 120.897 24.5091 120.768 24.4551C120.698 24.4089 120.64 24.3511 120.598 24.2854C120.557 24.2197 120.532 24.1476 120.527 24.0737C120.521 23.9998 120.534 23.9258 120.566 23.8565C120.597 23.7871 120.645 23.7239 120.708 23.671C120.708 23.671 121.667 22.8356 122.86 21.5472C122.903 21.4946 122.959 21.4499 123.024 21.416C123.09 21.3821 123.163 21.3597 123.239 21.3502C123.316 21.3408 123.394 21.3445 123.468 21.3611C123.543 21.3777 123.612 21.4068 123.673 21.4466Z" fill="#5EBAAF"/>
<path d="M130.203 9.60932C130.206 9.54268 130.225 9.47723 130.259 9.41682C130.293 9.3564 130.342 9.30225 130.402 9.25755C130.462 9.21285 130.533 9.1785 130.609 9.15653C130.686 9.13455 130.767 9.1254 130.848 9.12961C130.931 9.12778 131.014 9.14063 131.09 9.16729C131.166 9.19395 131.235 9.23379 131.291 9.28411C131.347 9.33444 131.39 9.39407 131.415 9.45897C131.441 9.52388 131.45 9.59254 131.44 9.6603C131.316 12.5824 128.726 16.1892 126.528 18.6553C126.407 18.7638 126.242 18.8316 126.064 18.8456C125.92 18.8388 125.779 18.8073 125.65 18.7532C125.513 18.6761 125.416 18.5589 125.38 18.4255C125.345 18.2921 125.372 18.1525 125.457 18.0354C127.599 15.6795 130.068 12.3054 130.203 9.60932Z" fill="#5EBAAF"/>
<path d="M123.673 21.4466L123.397 21.8637L123.4 21.866L123.673 21.4466ZM123.8 22.1677L124.174 22.5005L124.18 22.4932L123.8 22.1677ZM121.65 24.4107L121.883 24.8532L122.174 24.7001L122.149 24.3723L121.65 24.4107ZM121.181 24.5416L121.171 25.0415L121.194 25.042L121.217 25.0404L121.181 24.5416ZM120.768 24.4551L120.494 24.8733L120.532 24.8982L120.574 24.9158L120.768 24.4551ZM120.708 23.671L121.03 24.0535L121.037 24.048L120.708 23.671ZM122.86 21.5472L123.227 21.8868L123.237 21.8756L123.247 21.8638L122.86 21.5472ZM130.203 9.60932L130.702 9.63404L130.702 9.63146L130.203 9.60932ZM130.848 9.12961L130.822 9.62893L130.84 9.62989L130.859 9.62948L130.848 9.12961ZM131.44 9.6603L130.945 9.59169L130.942 9.61536L130.941 9.63923L131.44 9.6603ZM126.528 18.6553L126.862 19.0272L126.883 19.0086L126.901 18.9879L126.528 18.6553ZM126.064 18.8456L126.04 19.3451L126.071 19.3466L126.103 19.3441L126.064 18.8456ZM125.65 18.7532L125.406 19.1893L125.43 19.2031L125.456 19.2139L125.65 18.7532ZM125.457 18.0354L125.087 17.6992L125.069 17.7193L125.053 17.7413L125.457 18.0354ZM123.4 21.866C123.415 21.8756 123.421 21.8833 123.422 21.8853C123.424 21.887 123.421 21.8833 123.419 21.8739L124.404 21.699C124.352 21.4097 124.173 21.1757 123.945 21.0273L123.4 21.866ZM123.419 21.8739C123.417 21.8642 123.418 21.8542 123.42 21.8464C123.422 21.839 123.425 21.838 123.421 21.8421L124.18 22.4932C124.364 22.2779 124.456 21.9923 124.404 21.699L123.419 21.8739ZM123.427 21.835C122.835 22.4987 122.304 23.0367 121.92 23.4178C121.733 23.6041 121.569 23.7641 121.461 23.8718C121.407 23.9261 121.357 23.977 121.32 24.0188C121.302 24.0385 121.278 24.0666 121.255 24.0978C121.245 24.1126 121.225 24.1405 121.207 24.177C121.199 24.1925 121.14 24.3011 121.152 24.4491L122.149 24.3723C122.16 24.5166 122.103 24.62 122.099 24.6287C122.084 24.6585 122.069 24.6782 122.066 24.6833C122.057 24.6951 122.054 24.6978 122.064 24.6863C122.083 24.6659 122.116 24.6312 122.169 24.5778C122.277 24.4701 122.425 24.3259 122.625 24.1275C123.016 23.739 123.563 23.1852 124.173 22.5004L123.427 21.835ZM121.418 23.9682C121.341 24.0086 121.248 24.0357 121.146 24.0429L121.217 25.0404C121.449 25.0239 121.678 24.9612 121.883 24.8532L121.418 23.9682ZM121.192 24.0417C121.109 24.04 121.031 24.0229 120.963 23.9944L120.574 24.9158C120.762 24.9952 120.966 25.0373 121.171 25.0415L121.192 24.0417ZM121.043 24.0369C121.027 24.0264 121.021 24.0183 121.021 24.0176L120.176 24.5532C120.259 24.6839 120.369 24.7913 120.494 24.8733L121.043 24.0369ZM121.021 24.0176C121.021 24.0173 121.021 24.0187 121.023 24.022C121.024 24.0253 121.025 24.0298 121.025 24.0353L120.028 24.1121C120.04 24.2717 120.093 24.422 120.176 24.5532L121.021 24.0176ZM121.025 24.0353C121.026 24.0409 121.025 24.0463 121.024 24.0513C121.024 24.0563 121.022 24.0599 121.021 24.062L120.11 23.651C120.045 23.7946 120.016 23.9523 120.028 24.1121L121.025 24.0353ZM121.021 24.062C121.019 24.0662 121.02 24.0621 121.03 24.0535L120.386 23.2885C120.271 23.3858 120.174 23.508 120.11 23.651L121.021 24.062ZM120.708 23.671C121.037 24.048 121.037 24.048 121.037 24.0479C121.037 24.0479 121.037 24.0479 121.037 24.0479C121.037 24.0478 121.037 24.0477 121.037 24.0477C121.037 24.0475 121.038 24.0473 121.038 24.047C121.038 24.0465 121.039 24.0457 121.04 24.0448C121.043 24.0429 121.046 24.0402 121.05 24.0367C121.057 24.0298 121.069 24.0196 121.084 24.0064C121.114 23.9799 121.157 23.9411 121.213 23.8907C121.324 23.7898 121.484 23.6424 121.682 23.4545C122.076 23.0788 122.622 22.5403 123.227 21.8868L122.493 21.2076C121.906 21.8425 121.375 22.3659 120.992 22.73C120.801 22.912 120.647 23.054 120.541 23.15C120.488 23.198 120.447 23.2346 120.42 23.2588C120.406 23.2709 120.396 23.28 120.389 23.2859C120.386 23.2888 120.383 23.291 120.382 23.2924C120.381 23.2931 120.381 23.2935 120.38 23.2938C120.38 23.294 120.38 23.294 120.38 23.2941C120.38 23.2941 120.38 23.2941 120.38 23.2941C120.38 23.2941 120.38 23.2941 120.38 23.2941C120.38 23.2941 120.38 23.294 120.708 23.671ZM123.247 21.8638C123.244 21.8678 123.245 21.8648 123.255 21.8596L122.794 20.9723C122.674 21.035 122.563 21.1213 122.473 21.2306L123.247 21.8638ZM123.255 21.8596C123.265 21.8544 123.28 21.8489 123.3 21.8464L123.178 20.854C123.045 20.8704 122.915 20.9097 122.794 20.9723L123.255 21.8596ZM123.3 21.8464C123.32 21.844 123.341 21.845 123.359 21.8491L123.577 20.873C123.446 20.8439 123.311 20.8376 123.178 20.854L123.3 21.8464ZM123.359 21.8491C123.378 21.8532 123.39 21.8595 123.397 21.8637L123.949 21.0296C123.834 20.9542 123.708 20.9021 123.577 20.873L123.359 21.8491ZM130.702 9.63146C130.702 9.64688 130.697 9.65793 130.694 9.66326L129.824 9.17038C129.753 9.29653 129.71 9.43849 129.703 9.58719L130.702 9.63146ZM130.694 9.66326C130.691 9.66803 130.692 9.66527 130.7 9.65878L130.104 8.85632C129.992 8.93924 129.895 9.04478 129.824 9.17038L130.694 9.66326ZM130.7 9.65878C130.709 9.65221 130.725 9.64358 130.747 9.63713L130.472 8.67592C130.341 8.71342 130.215 8.77349 130.104 8.85632L130.7 9.65878ZM130.747 9.63713C130.769 9.6307 130.795 9.62754 130.822 9.62893L130.874 8.63028C130.739 8.62326 130.602 8.6384 130.472 8.67592L130.747 9.63713ZM130.859 9.62948C130.884 9.62894 130.907 9.63292 130.925 9.63944L131.255 8.69515C131.12 8.64835 130.978 8.62663 130.837 8.62973L130.859 9.62948ZM130.925 9.63944C130.944 9.64597 130.954 9.65347 130.957 9.65651L131.625 8.91172C131.516 8.81411 131.389 8.74192 131.255 8.69515L130.925 9.63944ZM130.957 9.65651C130.961 9.65936 130.956 9.656 130.951 9.64313L131.88 9.27482C131.824 9.13215 131.734 9.00952 131.625 8.91172L130.957 9.65651ZM130.951 9.64313C130.945 9.62952 130.942 9.61119 130.945 9.59169L131.935 9.72891C131.957 9.57388 131.937 9.41824 131.88 9.27482L130.951 9.64313ZM130.941 9.63923C130.884 10.977 130.255 12.5234 129.332 14.0732C128.416 15.6125 127.241 17.1047 126.155 18.3227L126.901 18.9879C128.014 17.7399 129.232 16.1956 130.191 14.5845C131.144 12.9838 131.872 11.2657 131.94 9.68138L130.941 9.63923ZM126.194 18.2834C126.163 18.3109 126.105 18.3408 126.024 18.3472L126.103 19.3441C126.379 19.3223 126.651 19.2166 126.862 19.0272L126.194 18.2834ZM126.088 18.3462C126 18.3421 125.917 18.323 125.845 18.2924L125.456 19.2139C125.64 19.2917 125.839 19.3356 126.04 19.3451L126.088 18.3462ZM125.895 18.317C125.857 18.2957 125.859 18.2803 125.863 18.2956L124.898 18.5554C124.973 18.8375 125.169 19.0566 125.406 19.1893L125.895 18.317ZM125.863 18.2956C125.865 18.303 125.866 18.3122 125.864 18.3209C125.862 18.3292 125.86 18.332 125.862 18.3295L125.053 17.7413C124.884 17.9738 124.82 18.2681 124.898 18.5554L125.863 18.2956ZM125.827 18.3716C126.911 17.1791 128.086 15.7211 129.009 14.2106C129.926 12.7114 130.629 11.1073 130.702 9.63404L129.703 9.58461C129.642 10.8074 129.043 12.2384 128.156 13.6892C127.276 15.1289 126.145 16.5358 125.087 17.6992L125.827 18.3716Z" fill="#5EBAAF"/>
</svg>
